<?xml version="1.0" encoding="UTF-8" standalone="no"?>
<!DOCTYPE svg PUBLIC "-//W3C//DTD SVG 1.1//EN"
 "http://www.w3.org/Graphics/SVG/1.1/DTD/svg11.dtd">
<!-- Generated by graphviz version 15.1.0 (20260618.0150)
 -->
<!-- Title: ElaioNetworkOverview Pages: 1 -->
<svg width="1842pt" height="643pt"
 viewBox="0.00 0.00 1842.00 643.00" xmlns="http://www.w3.org/2000/svg" xmlns:xlink="http://www.w3.org/1999/xlink">
<g id="graph0" class="graph" transform="scale(1 1) rotate(0) translate(4 638.5)">
<title>ElaioNetworkOverview</title>
<text xml:space="preserve" text-anchor="middle" x="917" y="-619.1" font-family="Helvetica,sans-Serif" font-size="12.00">Elaio 2x5x4 topology overview</text>
<text xml:space="preserve" text-anchor="middle" x="917" y="-604.85" font-family="Helvetica,sans-Serif" font-size="12.00">14 depth levels, 77 neurons, 1197 connections</text>
<text xml:space="preserve" text-anchor="middle" x="917" y="-590.6" font-family="Helvetica,sans-Serif" font-size="12.00">Orange groups contain square&#45;activation neurons</text>
<!-- d0&#45;&gt;d1 -->
<g id="edge1" class="edge">
<title>d0&#45;&gt;d1</title>
<g id="a_edge1"><a xlink:title="25 connections from depth 0 to depth 1">
<path fill="none" stroke="#737373" d="M54.33,-168.44C71.19,-174.48 93.3,-182.4 111.8,-189.03"/>
<polygon fill="#737373" stroke="#737373" points="111.2,-190.67 116.5,-190.71 112.38,-187.38 111.2,-190.67"/>
</a>
</g>
<text xml:space="preserve" text-anchor="middle" x="86.25" y="-182.65" font-family="Helvetica,sans-Serif" font-size="8.00" fill="#595959">25</text>
</g>
<!-- d0&#45;&gt;d2 -->
<g id="edge2" class="edge">
<title>d0&#45;&gt;d2</title>
<g id="a_edge2"><a xlink:title="30 connections from depth 0 to depth 2">
<path fill="none" stroke="#737373" d="M46.28,-177.38C63.58,-193.9 90.94,-217.83 118.5,-233 156.38,-253.85 203.67,-268.44 237.45,-277.15"/>
<polygon fill="#737373" stroke="#737373" points="236.85,-278.8 242.13,-278.34 237.71,-275.41 236.85,-278.8"/>
</a>
</g>
<text xml:space="preserve" text-anchor="middle" x="149" y="-261.29" font-family="Helvetica,sans-Serif" font-size="8.00" fill="#595959">30</text>
</g>
<!-- d0&#45;&gt;d3 -->
<g id="edge3" class="edge">
<title>d0&#45;&gt;d3</title>
<g id="a_edge3"><a xlink:title="30 connections from depth 0 to depth 3">
<path fill="none" stroke="#737373" d="M54.36,-160.51C84.64,-162.41 135.8,-166.17 179.5,-172 249.38,-181.33 329.77,-196.92 378.06,-206.82"/>
<polygon fill="#737373" stroke="#737373" points="377.63,-208.52 382.88,-207.82 378.33,-205.09 377.63,-208.52"/>
</a>
</g>
<text xml:space="preserve" text-anchor="middle" x="211.75" y="-179.29" font-family="Helvetica,sans-Serif" font-size="8.00" fill="#595959">30</text>
</g>
<!-- d0&#45;&gt;d7 -->
<g id="edge4" class="edge">
<title>d0&#45;&gt;d7</title>
<g id="a_edge4"><a xlink:title="25 connections from depth 0 to depth 7">
<path fill="none" stroke="#737373" d="M37.47,-140.68C54.86,-109.87 95.03,-51 148,-51 148,-51 148,-51 353.25,-51 505.16,-51 516.91,-158.42 665.5,-190 714.84,-200.49 728.56,-190.64 779,-190 835.01,-189.29 899.97,-187.44 939.51,-186.2"/>
<polygon fill="#737373" stroke="#737373" points="939.18,-187.96 944.12,-186.06 939.07,-184.47 939.18,-187.96"/>
</a>
</g>
<text xml:space="preserve" text-anchor="middle" x="492.75" y="-101.24" font-family="Helvetica,sans-Serif" font-size="8.00" fill="#595959">25</text>
</g>
<!-- d0&#45;&gt;d8 -->
<g id="edge5" class="edge">
<title>d0&#45;&gt;d8</title>
<g id="a_edge5"><a xlink:title="30 connections from depth 0 to depth 8">
<path fill="none" stroke="#737373" d="M29.26,-177.37C35.25,-257.68 64.19,-574 148,-574 148,-574 148,-574 915.25,-574 1022.32,-574 1081.98,-426.53 1101.64,-367.24"/>
<polygon fill="#737373" stroke="#737373" points="1103.28,-367.86 1103.16,-362.57 1099.95,-366.78 1103.28,-367.86"/>
</a>
</g>
<text xml:space="preserve" text-anchor="middle" x="563" y="-576.15" font-family="Helvetica,sans-Serif" font-size="8.00" fill="#595959">30</text>
</g>
<!-- d0&#45;&gt;d9 -->
<g id="edge6" class="edge">
<title>d0&#45;&gt;d9</title>
<g id="a_edge6"><a xlink:title="30 connections from depth 0 to depth 9">
<path fill="none" stroke="#737373" d="M32.44,-140.76C43.81,-99 78.14,0 148,0 148,0 148,0 845,0 1013.75,0 1174.2,-155.77 1229.34,-215.27"/>
<polygon fill="#737373" stroke="#737373" points="1227.73,-216.11 1232.4,-218.61 1230.31,-213.74 1227.73,-216.11"/>
</a>
</g>
<text xml:space="preserve" text-anchor="middle" x="633.25" y="-2.15" font-family="Helvetica,sans-Serif" font-size="8.00" fill="#595959">30</text>
</g>
<!-- d1&#45;&gt;d2 -->
<g id="edge7" class="edge">
<title>d1&#45;&gt;d2</title>
<g id="a_edge7"><a xlink:title="30 connections from depth 1 to depth 2">
<path fill="none" stroke="#737373" d="M179.07,-220.86C199.36,-234.03 226.49,-251.63 247.66,-265.37"/>
<polygon fill="#737373" stroke="#737373" points="246.49,-266.69 251.64,-267.95 248.4,-263.76 246.49,-266.69"/>
</a>
</g>
<text xml:space="preserve" text-anchor="middle" x="211.75" y="-246.65" font-family="Helvetica,sans-Serif" font-size="8.00" fill="#595959">30</text>
</g>
<!-- d1&#45;&gt;d3 -->
<g id="edge8" class="edge">
<title>d1&#45;&gt;d3</title>
<g id="a_edge8"><a xlink:title="30 connections from depth 1 to depth 3">
<path fill="none" stroke="#737373" d="M180.35,-203.57C228.59,-206.05 322.91,-210.92 378.22,-213.77"/>
<polygon fill="#737373" stroke="#737373" points="377.84,-215.5 382.92,-214.01 378.02,-212.01 377.84,-215.5"/>
</a>
</g>
<text xml:space="preserve" text-anchor="middle" x="282" y="-212.77" font-family="Helvetica,sans-Serif" font-size="8.00" fill="#595959">30</text>
</g>
<!-- d1&#45;&gt;d6 -->
<g id="edge9" class="edge">
<title>d1&#45;&gt;d6</title>
<g id="a_edge9"><a xlink:title="25 connections from depth 1 to depth 6">
<path fill="none" stroke="#737373" d="M180.22,-199.12C290.26,-188.64 669.79,-152.5 799.29,-140.16"/>
<polygon fill="#737373" stroke="#737373" points="799.32,-141.92 804.13,-139.7 798.99,-138.43 799.32,-141.92"/>
</a>
</g>
<text xml:space="preserve" text-anchor="middle" x="492.75" y="-171.62" font-family="Helvetica,sans-Serif" font-size="8.00" fill="#595959">25</text>
</g>
<!-- d2&#45;&gt;d3 -->
<g id="edge10" class="edge">
<title>d2&#45;&gt;d3</title>
<g id="a_edge10"><a xlink:title="36 connections from depth 2 to depth 3">
<path fill="none" stroke="#737373" d="M319.03,-268.53C337.78,-258.92 360.8,-247.12 380.26,-237.14"/>
<polygon fill="#737373" stroke="#737373" points="380.65,-238.91 384.31,-235.07 379.06,-235.79 380.65,-238.91"/>
</a>
</g>
<text xml:space="preserve" text-anchor="middle" x="352.25" y="-255.78" font-family="Helvetica,sans-Serif" font-size="8.00" fill="#595959">36</text>
</g>
<!-- d2&#45;&gt;d4 -->
<g id="edge11" class="edge">
<title>d2&#45;&gt;d4</title>
<g id="a_edge11"><a xlink:title="36 connections from depth 2 to depth 4">
<path fill="none" stroke="#737373" d="M320.45,-298.56C329.14,-301.12 338.37,-303.74 347,-306 405.95,-321.45 474.71,-336.63 518.29,-345.9"/>
<polygon fill="#737373" stroke="#737373" points="517.8,-347.59 523.05,-346.91 518.53,-344.16 517.8,-347.59"/>
</a>
</g>
<text xml:space="preserve" text-anchor="middle" x="422.5" y="-334.75" font-family="Helvetica,sans-Serif" font-size="8.00" fill="#595959">36</text>
</g>
<!-- d2&#45;&gt;d5 -->
<g id="edge12" class="edge">
<title>d2&#45;&gt;d5</title>
<g id="a_edge12"><a xlink:title="36 connections from depth 2 to depth 5">
<path fill="none" stroke="#737373" d="M320.23,-287C397.72,-287 576,-287 658.78,-287"/>
<polygon fill="#737373" stroke="#737373" points="658.54,-288.75 663.54,-287 658.54,-285.25 658.54,-288.75"/>
</a>
</g>
<text xml:space="preserve" text-anchor="middle" x="492.75" y="-289.15" font-family="Helvetica,sans-Serif" font-size="8.00" fill="#595959">36</text>
</g>
<!-- d3&#45;&gt;d4 -->
<g id="edge13" class="edge">
<title>d3&#45;&gt;d4</title>
<g id="a_edge13"><a xlink:title="36 connections from depth 3 to depth 4">
<path fill="none" stroke="#737373" d="M435.77,-234.35C447.85,-251.73 467.36,-278.05 487.5,-298 500.38,-310.76 516.15,-323.2 529.86,-333.19"/>
<polygon fill="#737373" stroke="#737373" points="528.5,-334.36 533.57,-335.87 530.54,-331.52 528.5,-334.36"/>
</a>
</g>
<text xml:space="preserve" text-anchor="middle" x="492.75" y="-308.88" font-family="Helvetica,sans-Serif" font-size="8.00" fill="#595959">36</text>
</g>
<!-- d3&#45;&gt;d5 -->
<g id="edge14" class="edge">
<title>d3&#45;&gt;d5</title>
<g id="a_edge14"><a xlink:title="36 connections from depth 3 to depth 5">
<path fill="none" stroke="#737373" d="M460.99,-224.25C504.05,-233.91 576.72,-250.8 638.5,-268 645.3,-269.89 652.5,-271.96 659.5,-274.02"/>
<polygon fill="#737373" stroke="#737373" points="658.59,-275.57 663.88,-275.31 659.58,-272.21 658.59,-275.57"/>
</a>
</g>
<text xml:space="preserve" text-anchor="middle" x="563" y="-259.7" font-family="Helvetica,sans-Serif" font-size="8.00" fill="#595959">36</text>
</g>
<!-- d4&#45;&gt;d5 -->
<g id="edge15" class="edge">
<title>d4&#45;&gt;d5</title>
<g id="a_edge15"><a xlink:title="36 connections from depth 4 to depth 5">
<path fill="none" stroke="#737373" d="M601.48,-336.6C619.49,-327.76 641.15,-317.12 659.79,-307.97"/>
<polygon fill="#737373" stroke="#737373" points="660.39,-309.62 664.11,-305.85 658.85,-306.48 660.39,-309.62"/>
</a>
</g>
<text xml:space="preserve" text-anchor="middle" x="633.25" y="-325.19" font-family="Helvetica,sans-Serif" font-size="8.00" fill="#595959">36</text>
</g>
<!-- d4&#45;&gt;d6 -->
<g id="edge16" class="edge">
<title>d4&#45;&gt;d6</title>
<g id="a_edge16"><a xlink:title="30 connections from depth 4 to depth 6">
<path fill="none" stroke="#737373" d="M578.58,-336.87C597.26,-314.3 631.34,-275.3 665.5,-247.25 709.16,-211.39 765.2,-178.08 802.52,-157.44"/>
<polygon fill="#737373" stroke="#737373" points="803.02,-159.16 806.56,-155.21 801.33,-156.09 803.02,-159.16"/>
</a>
</g>
<text xml:space="preserve" text-anchor="middle" x="703.5" y="-249.4" font-family="Helvetica,sans-Serif" font-size="8.00" fill="#595959">30</text>
</g>
<!-- d4&#45;&gt;d8 -->
<g id="edge17" class="edge">
<title>d4&#45;&gt;d8</title>
<g id="a_edge17"><a xlink:title="36 connections from depth 4 to depth 8">
<path fill="none" stroke="#737373" d="M574.31,-373.28C594.38,-406.19 642.07,-472 702.5,-472 702.5,-472 702.5,-472 978,-472 1037.08,-472 1079.21,-404.56 1098.02,-367.2"/>
<polygon fill="#737373" stroke="#737373" points="1099.53,-368.1 1100.16,-362.84 1096.39,-366.55 1099.53,-368.1"/>
</a>
</g>
<text xml:space="preserve" text-anchor="middle" x="844" y="-474.15" font-family="Helvetica,sans-Serif" font-size="8.00" fill="#595959">36</text>
</g>
<!-- d4&#45;&gt;d9 -->
<g id="edge18" class="edge">
<title>d4&#45;&gt;d9</title>
<g id="a_edge18"><a xlink:title="36 connections from depth 4 to depth 9">
<path fill="none" stroke="#737373" d="M601.32,-356.25C629.2,-357.07 668.23,-358 702.5,-358 702.5,-358 702.5,-358 915.25,-358 945.24,-358 1122.74,-288.67 1206.19,-255.41"/>
<polygon fill="#737373" stroke="#737373" points="1206.63,-257.12 1210.63,-253.64 1205.33,-253.87 1206.63,-257.12"/>
</a>
</g>
<text xml:space="preserve" text-anchor="middle" x="914.25" y="-360.15" font-family="Helvetica,sans-Serif" font-size="8.00" fill="#595959">36</text>
</g>
<!-- d4&#45;&gt;d13 -->
<g id="edge19" class="edge">
<title>d4&#45;&gt;d13</title>
<g id="a_edge19"><a xlink:title="24 connections from depth 4 to depth 13">
<path fill="none" stroke="#737373" d="M569.38,-373.3C583.43,-416.84 625.58,-523 702.5,-523 702.5,-523 702.5,-523 915.25,-523 1001.5,-523 1022.75,-534 1109,-534 1109,-534 1109,-534 1673,-534 1748.86,-534 1785.04,-427.76 1797.73,-378.52"/>
<polygon fill="#737373" stroke="#737373" points="1799.42,-378.99 1798.93,-373.72 1796.02,-378.14 1799.42,-378.99"/>
</a>
</g>
<text xml:space="preserve" text-anchor="middle" x="1180.25" y="-536.15" font-family="Helvetica,sans-Serif" font-size="8.00" fill="#595959">24</text>
</g>
<!-- d5&#45;&gt;d6 -->
<g id="edge20" class="edge">
<title>d5&#45;&gt;d6</title>
<g id="a_edge20"><a xlink:title="30 connections from depth 5 to depth 6">
<path fill="none" stroke="#737373" d="M721.21,-268.79C746.47,-241.24 794.39,-189 821.99,-158.91"/>
<polygon fill="#737373" stroke="#737373" points="823.12,-160.26 825.21,-155.39 820.54,-157.9 823.12,-160.26"/>
</a>
</g>
<text xml:space="preserve" text-anchor="middle" x="773.75" y="-218.18" font-family="Helvetica,sans-Serif" font-size="8.00" fill="#595959">30</text>
</g>
<!-- d5&#45;&gt;d8 -->
<g id="edge21" class="edge">
<title>d5&#45;&gt;d8</title>
<g id="a_edge21"><a xlink:title="36 connections from depth 5 to depth 8">
<path fill="none" stroke="#737373" d="M741.83,-292.17C816.93,-302.57 985.91,-325.96 1065.71,-337.01"/>
<polygon fill="#737373" stroke="#737373" points="1065.07,-338.68 1070.26,-337.64 1065.55,-335.22 1065.07,-338.68"/>
</a>
</g>
<text xml:space="preserve" text-anchor="middle" x="914.25" y="-318.44" font-family="Helvetica,sans-Serif" font-size="8.00" fill="#595959">36</text>
</g>
<!-- d5&#45;&gt;d9 -->
<g id="edge22" class="edge">
<title>d5&#45;&gt;d9</title>
<g id="a_edge22"><a xlink:title="36 connections from depth 5 to depth 9">
<path fill="none" stroke="#737373" d="M741.96,-283.63C839.6,-274.85 1101.53,-251.3 1205.8,-241.93"/>
<polygon fill="#737373" stroke="#737373" points="1205.81,-243.69 1210.63,-241.49 1205.49,-240.2 1205.81,-243.69"/>
</a>
</g>
<text xml:space="preserve" text-anchor="middle" x="977" y="-267.24" font-family="Helvetica,sans-Serif" font-size="8.00" fill="#595959">36</text>
</g>
<!-- d5&#45;&gt;d13 -->
<g id="edge23" class="edge">
<title>d5&#45;&gt;d13</title>
<g id="a_edge23"><a xlink:title="24 connections from depth 5 to depth 13">
<path fill="none" stroke="#737373" d="M739.64,-305.47C779.56,-325.61 847.19,-357.2 909,-374 1086.74,-422.3 1135.57,-429 1319.75,-429 1319.75,-429 1319.75,-429 1673,-429 1715.57,-429 1756.77,-398.55 1781.07,-376.45"/>
<polygon fill="#737373" stroke="#737373" points="1782.11,-377.87 1784.59,-373.19 1779.73,-375.3 1782.11,-377.87"/>
</a>
</g>
<text xml:space="preserve" text-anchor="middle" x="1250.5" y="-431.06" font-family="Helvetica,sans-Serif" font-size="8.00" fill="#595959">24</text>
</g>
<!-- d6&#45;&gt;d7 -->
<g id="edge24" class="edge">
<title>d6&#45;&gt;d7</title>
<g id="a_edge24"><a xlink:title="25 connections from depth 6 to depth 7">
<path fill="none" stroke="#737373" d="M882.19,-149.91C900.27,-156.67 921.91,-164.77 939.85,-171.48"/>
<polygon fill="#737373" stroke="#737373" points="939.06,-173.05 944.36,-173.16 940.29,-169.77 939.06,-173.05"/>
</a>
</g>
<text xml:space="preserve" text-anchor="middle" x="914.25" y="-165.58" font-family="Helvetica,sans-Serif" font-size="8.00" fill="#595959">25</text>
</g>
<!-- d6&#45;&gt;d13 -->
<g id="edge25" class="edge">
<title>d6&#45;&gt;d13</title>
<g id="a_edge25"><a xlink:title="20 connections from depth 6 to depth 13">
<path fill="none" stroke="#737373" d="M861.99,-117.59C893.5,-85.57 964.57,-23 1038.75,-23 1038.75,-23 1038.75,-23 1673,-23 1738.92,-23 1785.48,-253.22 1799.12,-329.66"/>
<polygon fill="#737373" stroke="#737373" points="1797.34,-329.62 1799.93,-334.24 1800.79,-329.01 1797.34,-329.62"/>
</a>
</g>
<text xml:space="preserve" text-anchor="middle" x="1320.75" y="-25.15" font-family="Helvetica,sans-Serif" font-size="8.00" fill="#595959">20</text>
</g>
<!-- d7&#45;&gt;d8 -->
<g id="edge26" class="edge">
<title>d7&#45;&gt;d8</title>
<g id="a_edge26"><a xlink:title="30 connections from depth 7 to depth 8">
<path fill="none" stroke="#737373" d="M993.54,-203.75C1017.6,-232.76 1063.81,-288.49 1089.88,-319.94"/>
<polygon fill="#737373" stroke="#737373" points="1088.38,-320.87 1092.92,-323.6 1091.07,-318.64 1088.38,-320.87"/>
</a>
</g>
<text xml:space="preserve" text-anchor="middle" x="1039.75" y="-266.15" font-family="Helvetica,sans-Serif" font-size="8.00" fill="#595959">30</text>
</g>
<!-- d7&#45;&gt;d9 -->
<g id="edge27" class="edge">
<title>d7&#45;&gt;d9</title>
<g id="a_edge27"><a xlink:title="30 connections from depth 7 to depth 9">
<path fill="none" stroke="#737373" d="M1008.28,-187.82C1042.42,-191.26 1099.5,-197.81 1148,-207.25 1164.9,-210.54 1168.98,-212.15 1185.5,-217 1192.11,-218.94 1199.08,-221.1 1205.88,-223.28"/>
<polygon fill="#737373" stroke="#737373" points="1205.32,-224.94 1210.62,-224.81 1206.4,-221.61 1205.32,-224.94"/>
</a>
</g>
<text xml:space="preserve" text-anchor="middle" x="1110" y="-209.4" font-family="Helvetica,sans-Serif" font-size="8.00" fill="#595959">30</text>
</g>
<!-- d7&#45;&gt;d12 -->
<g id="edge28" class="edge">
<title>d7&#45;&gt;d12</title>
<g id="a_edge28"><a xlink:title="25 connections from depth 7 to depth 12">
<path fill="none" stroke="#737373" d="M1002.56,-166.02C1027.81,-148.44 1068.98,-125 1109,-125 1109,-125 1109,-125 1532.5,-125 1596,-125 1640.86,-198.7 1660.26,-237.99"/>
<polygon fill="#737373" stroke="#737373" points="1658.53,-238.42 1662.28,-242.16 1661.68,-236.9 1658.53,-238.42"/>
</a>
</g>
<text xml:space="preserve" text-anchor="middle" x="1320.75" y="-127.15" font-family="Helvetica,sans-Serif" font-size="8.00" fill="#595959">25</text>
</g>
<!-- d8&#45;&gt;d9 -->
<g id="edge29" class="edge">
<title>d8&#45;&gt;d9</title>
<g id="a_edge29"><a xlink:title="36 connections from depth 8 to depth 9">
<path fill="none" stroke="#737373" d="M1135.12,-324.71C1158.81,-306.75 1194.97,-279.34 1220.28,-260.15"/>
<polygon fill="#737373" stroke="#737373" points="1221.05,-261.76 1223.98,-257.35 1218.94,-258.97 1221.05,-261.76"/>
</a>
</g>
<text xml:space="preserve" text-anchor="middle" x="1180.25" y="-295.8" font-family="Helvetica,sans-Serif" font-size="8.00" fill="#595959">36</text>
</g>
<!-- d8&#45;&gt;d10 -->
<g id="edge30" class="edge">
<title>d8&#45;&gt;d10</title>
<g id="a_edge30"><a xlink:title="36 connections from depth 8 to depth 10">
<path fill="none" stroke="#737373" d="M1148.47,-349.16C1157.16,-350.34 1166.38,-351.4 1175,-352 1234.33,-356.15 1303,-351.27 1346.46,-346.99"/>
<polygon fill="#737373" stroke="#737373" points="1346.38,-348.76 1351.18,-346.52 1346.03,-345.28 1346.38,-348.76"/>
</a>
</g>
<text xml:space="preserve" text-anchor="middle" x="1250.5" y="-355.73" font-family="Helvetica,sans-Serif" font-size="8.00" fill="#595959">36</text>
</g>
<!-- d8&#45;&gt;d11 -->
<g id="edge31" class="edge">
<title>d8&#45;&gt;d11</title>
<g id="a_edge31"><a xlink:title="36 connections from depth 8 to depth 11">
<path fill="none" stroke="#737373" d="M1148.43,-332.47C1189.24,-321.29 1256.6,-303.67 1315.5,-292.25 1374.4,-280.83 1443.17,-271.92 1486.77,-266.81"/>
<polygon fill="#737373" stroke="#737373" points="1486.75,-268.57 1491.51,-266.26 1486.35,-265.1 1486.75,-268.57"/>
</a>
</g>
<text xml:space="preserve" text-anchor="middle" x="1320.75" y="-294.4" font-family="Helvetica,sans-Serif" font-size="8.00" fill="#595959">36</text>
</g>
<!-- d9&#45;&gt;d10 -->
<g id="edge32" class="edge">
<title>d9&#45;&gt;d10</title>
<g id="a_edge32"><a xlink:title="36 connections from depth 9 to depth 10">
<path fill="none" stroke="#737373" d="M1264.82,-256.28C1276.74,-271.64 1295.4,-293.37 1315.5,-308 1325.01,-314.92 1336.14,-320.91 1346.87,-325.86"/>
<polygon fill="#737373" stroke="#737373" points="1346.11,-327.44 1351.39,-327.88 1347.54,-324.24 1346.11,-327.44"/>
</a>
</g>
<text xml:space="preserve" text-anchor="middle" x="1320.75" y="-316.31" font-family="Helvetica,sans-Serif" font-size="8.00" fill="#595959">36</text>
</g>
<!-- d9&#45;&gt;d11 -->
<g id="edge33" class="edge">
<title>d9&#45;&gt;d11</title>
<g id="a_edge33"><a xlink:title="36 connections from depth 9 to depth 11">
<path fill="none" stroke="#737373" d="M1288.82,-240.61C1331.72,-243.69 1404.25,-249.14 1466.5,-255 1473.15,-255.63 1480.17,-256.34 1487.04,-257.07"/>
<polygon fill="#737373" stroke="#737373" points="1486.63,-258.78 1491.79,-257.58 1487,-255.3 1486.63,-258.78"/>
</a>
</g>
<text xml:space="preserve" text-anchor="middle" x="1391" y="-253.62" font-family="Helvetica,sans-Serif" font-size="8.00" fill="#595959">36</text>
</g>
<!-- d10&#45;&gt;d11 -->
<g id="edge34" class="edge">
<title>d10&#45;&gt;d11</title>
<g id="a_edge34"><a xlink:title="36 connections from depth 10 to depth 11">
<path fill="none" stroke="#737373" d="M1423.77,-323.65C1444.54,-311.65 1471.73,-295.95 1493.47,-283.39"/>
<polygon fill="#737373" stroke="#737373" points="1494.11,-285.04 1497.56,-281.03 1492.36,-282.01 1494.11,-285.04"/>
</a>
</g>
<text xml:space="preserve" text-anchor="middle" x="1461.25" y="-306.55" font-family="Helvetica,sans-Serif" font-size="8.00" fill="#595959">36</text>
</g>
<!-- d10&#45;&gt;d12 -->
<g id="edge35" class="edge">
<title>d10&#45;&gt;d12</title>
<g id="a_edge35"><a xlink:title="30 connections from depth 10 to depth 12">
<path fill="none" stroke="#737373" d="M1429.48,-331.97C1465.46,-322.27 1521.3,-307.01 1569.5,-293 1588.73,-287.41 1609.94,-280.98 1627.97,-275.42"/>
<polygon fill="#737373" stroke="#737373" points="1628.24,-277.17 1632.51,-274.02 1627.21,-273.83 1628.24,-277.17"/>
</a>
</g>
<text xml:space="preserve" text-anchor="middle" x="1531.5" y="-316.55" font-family="Helvetica,sans-Serif" font-size="8.00" fill="#595959">30</text>
</g>
<!-- d10&#45;&gt;d13 -->
<g id="edge36" class="edge">
<title>d10&#45;&gt;d13</title>
<g id="a_edge36"><a xlink:title="24 connections from depth 10 to depth 13">
<path fill="none" stroke="#737373" d="M1429.22,-343.09C1507.97,-345.38 1690.55,-350.71 1767.76,-352.96"/>
<polygon fill="#737373" stroke="#737373" points="1767.45,-354.71 1772.5,-353.1 1767.56,-351.21 1767.45,-354.71"/>
</a>
</g>
<text xml:space="preserve" text-anchor="middle" x="1601.75" y="-350.29" font-family="Helvetica,sans-Serif" font-size="8.00" fill="#595959">24</text>
</g>
<!-- d11&#45;&gt;d12 -->
<g id="edge37" class="edge">
<title>d11&#45;&gt;d12</title>
<g id="a_edge37"><a xlink:title="30 connections from depth 11 to depth 12">
<path fill="none" stroke="#737373" d="M1569.98,-262C1587.83,-262 1609.28,-262 1627.81,-262"/>
<polygon fill="#737373" stroke="#737373" points="1627.46,-263.75 1632.46,-262 1627.46,-260.25 1627.46,-263.75"/>
</a>
</g>
<text xml:space="preserve" text-anchor="middle" x="1601.75" y="-264.15" font-family="Helvetica,sans-Serif" font-size="8.00" fill="#595959">30</text>
</g>
<!-- d11&#45;&gt;d13 -->
<g id="edge38" class="edge">
<title>d11&#45;&gt;d13</title>
<g id="a_edge38"><a xlink:title="24 connections from depth 11 to depth 13">
<path fill="none" stroke="#737373" d="M1569.86,-274.7C1622.28,-292.51 1716.94,-324.67 1768.12,-342.06"/>
<polygon fill="#737373" stroke="#737373" points="1767.41,-343.67 1772.71,-343.62 1768.54,-340.36 1767.41,-343.67"/>
</a>
</g>
<text xml:space="preserve" text-anchor="middle" x="1672" y="-323.77" font-family="Helvetica,sans-Serif" font-size="8.00" fill="#595959">24</text>
</g>
<!-- d12&#45;&gt;d13 -->
<g id="edge39" class="edge">
<title>d12&#45;&gt;d13</title>
<g id="a_edge39"><a xlink:title="20 connections from depth 12 to depth 13">
<path fill="none" stroke="#737373" d="M1710.17,-279.06C1722.48,-285.36 1735.97,-293 1747.5,-301.25 1759.71,-309.99 1771.98,-321.27 1781.89,-331.14"/>
<polygon fill="#737373" stroke="#737373" points="1780.44,-332.17 1785.2,-334.49 1782.93,-329.71 1780.44,-332.17"/>
</a>
</g>
<text xml:space="preserve" text-anchor="middle" x="1742.25" y="-303.4" font-family="Helvetica,sans-Serif" font-size="8.00" fill="#595959">20</text>
</g>
<!-- d0 -->
<g id="node1" class="node">
<title>d0</title>
<g id="a_node1"><a xlink:title="5 neurons at depth 0">
<path fill="lightskyblue" stroke="#737373" d="M42,-177C42,-177 12,-177 12,-177 6,-177 0,-171 0,-165 0,-165 0,-153 0,-153 0,-147 6,-141 12,-141 12,-141 42,-141 42,-141 48,-141 54,-147 54,-153 54,-153 54,-165 54,-165 54,-171 48,-177 42,-177"/>
<text xml:space="preserve" text-anchor="middle" x="27" y="-162.25" font-family="Helvetica,sans-Serif" font-size="10.00">depth 0</text>
<text xml:space="preserve" text-anchor="middle" x="27" y="-149.5" font-family="Helvetica,sans-Serif" font-size="10.00">input: 5</text>
</a>
</g>
</g>
<!-- d1 -->
<g id="node2" class="node">
<title>d1</title>
<g id="a_node2"><a xlink:title="5 neurons at depth 1">
<path fill="orange" stroke="#737373" stroke-width="2" d="M167.5,-220C167.5,-220 130.5,-220 130.5,-220 124.5,-220 118.5,-214 118.5,-208 118.5,-208 118.5,-196 118.5,-196 118.5,-190 124.5,-184 130.5,-184 130.5,-184 167.5,-184 167.5,-184 173.5,-184 179.5,-190 179.5,-196 179.5,-196 179.5,-208 179.5,-208 179.5,-214 173.5,-220 167.5,-220"/>
<text xml:space="preserve" text-anchor="middle" x="149" y="-205.25" font-family="Helvetica,sans-Serif" font-size="10.00">depth 1</text>
<text xml:space="preserve" text-anchor="middle" x="149" y="-192.5" font-family="Helvetica,sans-Serif" font-size="10.00">square: 5</text>
</a>
</g>
</g>
<!-- d2 -->
<g id="node3" class="node">
<title>d2</title>
<g id="a_node3"><a xlink:title="6 neurons at depth 2">
<path fill="gainsboro" stroke="#737373" d="M308,-305C308,-305 256,-305 256,-305 250,-305 244,-299 244,-293 244,-293 244,-281 244,-281 244,-275 250,-269 256,-269 256,-269 308,-269 308,-269 314,-269 320,-275 320,-281 320,-281 320,-293 320,-293 320,-299 314,-305 308,-305"/>
<text xml:space="preserve" text-anchor="middle" x="282" y="-290.25" font-family="Helvetica,sans-Serif" font-size="10.00">depth 2</text>
<text xml:space="preserve" text-anchor="middle" x="282" y="-277.5" font-family="Helvetica,sans-Serif" font-size="10.00">leaky relu: 6</text>
</a>
</g>
</g>
<!-- d3 -->
<g id="node4" class="node">
<title>d3</title>
<g id="a_node4"><a xlink:title="6 neurons at depth 3">
<path fill="gainsboro" stroke="#737373" d="M448.5,-234C448.5,-234 396.5,-234 396.5,-234 390.5,-234 384.5,-228 384.5,-222 384.5,-222 384.5,-210 384.5,-210 384.5,-204 390.5,-198 396.5,-198 396.5,-198 448.5,-198 448.5,-198 454.5,-198 460.5,-204 460.5,-210 460.5,-210 460.5,-222 460.5,-222 460.5,-228 454.5,-234 448.5,-234"/>
<text xml:space="preserve" text-anchor="middle" x="422.5" y="-219.25" font-family="Helvetica,sans-Serif" font-size="10.00">depth 3</text>
<text xml:space="preserve" text-anchor="middle" x="422.5" y="-206.5" font-family="Helvetica,sans-Serif" font-size="10.00">leaky relu: 6</text>
</a>
</g>
</g>
<!-- d4 -->
<g id="node5" class="node">
<title>d4</title>
<g id="a_node5"><a xlink:title="6 neurons at depth 4">
<path fill="gainsboro" stroke="#737373" d="M589,-373C589,-373 537,-373 537,-373 531,-373 525,-367 525,-361 525,-361 525,-349 525,-349 525,-343 531,-337 537,-337 537,-337 589,-337 589,-337 595,-337 601,-343 601,-349 601,-349 601,-361 601,-361 601,-367 595,-373 589,-373"/>
<text xml:space="preserve" text-anchor="middle" x="563" y="-358.25" font-family="Helvetica,sans-Serif" font-size="10.00">depth 4</text>
<text xml:space="preserve" text-anchor="middle" x="563" y="-345.5" font-family="Helvetica,sans-Serif" font-size="10.00">leaky relu: 6</text>
</a>
</g>
</g>
<!-- d5 -->
<g id="node6" class="node">
<title>d5</title>
<g id="a_node6"><a xlink:title="6 neurons at depth 5">
<path fill="gainsboro" stroke="#737373" d="M729.5,-305C729.5,-305 677.5,-305 677.5,-305 671.5,-305 665.5,-299 665.5,-293 665.5,-293 665.5,-281 665.5,-281 665.5,-275 671.5,-269 677.5,-269 677.5,-269 729.5,-269 729.5,-269 735.5,-269 741.5,-275 741.5,-281 741.5,-281 741.5,-293 741.5,-293 741.5,-299 735.5,-305 729.5,-305"/>
<text xml:space="preserve" text-anchor="middle" x="703.5" y="-290.25" font-family="Helvetica,sans-Serif" font-size="10.00">depth 5</text>
<text xml:space="preserve" text-anchor="middle" x="703.5" y="-277.5" font-family="Helvetica,sans-Serif" font-size="10.00">leaky relu: 6</text>
</a>
</g>
</g>
<!-- d6 -->
<g id="node7" class="node">
<title>d6</title>
<g id="a_node7"><a xlink:title="5 neurons at depth 6">
<path fill="gainsboro" stroke="#737373" d="M870,-154C870,-154 818,-154 818,-154 812,-154 806,-148 806,-142 806,-142 806,-130 806,-130 806,-124 812,-118 818,-118 818,-118 870,-118 870,-118 876,-118 882,-124 882,-130 882,-130 882,-142 882,-142 882,-148 876,-154 870,-154"/>
<text xml:space="preserve" text-anchor="middle" x="844" y="-139.25" font-family="Helvetica,sans-Serif" font-size="10.00">depth 6</text>
<text xml:space="preserve" text-anchor="middle" x="844" y="-126.5" font-family="Helvetica,sans-Serif" font-size="10.00">leaky relu: 5</text>
</a>
</g>
</g>
<!-- d7 -->
<g id="node8" class="node">
<title>d7</title>
<g id="a_node8"><a xlink:title="5 neurons at depth 7">
<path fill="orange" stroke="#737373" stroke-width="2" d="M995.5,-203C995.5,-203 958.5,-203 958.5,-203 952.5,-203 946.5,-197 946.5,-191 946.5,-191 946.5,-179 946.5,-179 946.5,-173 952.5,-167 958.5,-167 958.5,-167 995.5,-167 995.5,-167 1001.5,-167 1007.5,-173 1007.5,-179 1007.5,-179 1007.5,-191 1007.5,-191 1007.5,-197 1001.5,-203 995.5,-203"/>
<text xml:space="preserve" text-anchor="middle" x="977" y="-188.25" font-family="Helvetica,sans-Serif" font-size="10.00">depth 7</text>
<text xml:space="preserve" text-anchor="middle" x="977" y="-175.5" font-family="Helvetica,sans-Serif" font-size="10.00">square: 5</text>
</a>
</g>
</g>
<!-- d8 -->
<g id="node9" class="node">
<title>d8</title>
<g id="a_node9"><a xlink:title="6 neurons at depth 8">
<path fill="gainsboro" stroke="#737373" d="M1136,-361C1136,-361 1084,-361 1084,-361 1078,-361 1072,-355 1072,-349 1072,-349 1072,-337 1072,-337 1072,-331 1078,-325 1084,-325 1084,-325 1136,-325 1136,-325 1142,-325 1148,-331 1148,-337 1148,-337 1148,-349 1148,-349 1148,-355 1142,-361 1136,-361"/>
<text xml:space="preserve" text-anchor="middle" x="1110" y="-346.25" font-family="Helvetica,sans-Serif" font-size="10.00">depth 8</text>
<text xml:space="preserve" text-anchor="middle" x="1110" y="-333.5" font-family="Helvetica,sans-Serif" font-size="10.00">leaky relu: 6</text>
</a>
</g>
</g>
<!-- d9 -->
<g id="node10" class="node">
<title>d9</title>
<g id="a_node10"><a xlink:title="6 neurons at depth 9">
<path fill="gainsboro" stroke="#737373" d="M1276.5,-256C1276.5,-256 1224.5,-256 1224.5,-256 1218.5,-256 1212.5,-250 1212.5,-244 1212.5,-244 1212.5,-232 1212.5,-232 1212.5,-226 1218.5,-220 1224.5,-220 1224.5,-220 1276.5,-220 1276.5,-220 1282.5,-220 1288.5,-226 1288.5,-232 1288.5,-232 1288.5,-244 1288.5,-244 1288.5,-250 1282.5,-256 1276.5,-256"/>
<text xml:space="preserve" text-anchor="middle" x="1250.5" y="-241.25" font-family="Helvetica,sans-Serif" font-size="10.00">depth 9</text>
<text xml:space="preserve" text-anchor="middle" x="1250.5" y="-228.5" font-family="Helvetica,sans-Serif" font-size="10.00">leaky relu: 6</text>
</a>
</g>
</g>
<!-- d10 -->
<g id="node11" class="node">
<title>d10</title>
<g id="a_node11"><a xlink:title="6 neurons at depth 10">
<path fill="gainsboro" stroke="#737373" d="M1417,-360C1417,-360 1365,-360 1365,-360 1359,-360 1353,-354 1353,-348 1353,-348 1353,-336 1353,-336 1353,-330 1359,-324 1365,-324 1365,-324 1417,-324 1417,-324 1423,-324 1429,-330 1429,-336 1429,-336 1429,-348 1429,-348 1429,-354 1423,-360 1417,-360"/>
<text xml:space="preserve" text-anchor="middle" x="1391" y="-345.25" font-family="Helvetica,sans-Serif" font-size="10.00">depth 10</text>
<text xml:space="preserve" text-anchor="middle" x="1391" y="-332.5" font-family="Helvetica,sans-Serif" font-size="10.00">leaky relu: 6</text>
</a>
</g>
</g>
<!-- d11 -->
<g id="node12" class="node">
<title>d11</title>
<g id="a_node12"><a xlink:title="6 neurons at depth 11">
<path fill="gainsboro" stroke="#737373" d="M1557.5,-280C1557.5,-280 1505.5,-280 1505.5,-280 1499.5,-280 1493.5,-274 1493.5,-268 1493.5,-268 1493.5,-256 1493.5,-256 1493.5,-250 1499.5,-244 1505.5,-244 1505.5,-244 1557.5,-244 1557.5,-244 1563.5,-244 1569.5,-250 1569.5,-256 1569.5,-256 1569.5,-268 1569.5,-268 1569.5,-274 1563.5,-280 1557.5,-280"/>
<text xml:space="preserve" text-anchor="middle" x="1531.5" y="-265.25" font-family="Helvetica,sans-Serif" font-size="10.00">depth 11</text>
<text xml:space="preserve" text-anchor="middle" x="1531.5" y="-252.5" font-family="Helvetica,sans-Serif" font-size="10.00">leaky relu: 6</text>
</a>
</g>
</g>
<!-- d12 -->
<g id="node13" class="node">
<title>d12</title>
<g id="a_node13"><a xlink:title="5 neurons at depth 12">
<path fill="gainsboro" stroke="#737373" d="M1698,-280C1698,-280 1646,-280 1646,-280 1640,-280 1634,-274 1634,-268 1634,-268 1634,-256 1634,-256 1634,-250 1640,-244 1646,-244 1646,-244 1698,-244 1698,-244 1704,-244 1710,-250 1710,-256 1710,-256 1710,-268 1710,-268 1710,-274 1704,-280 1698,-280"/>
<text xml:space="preserve" text-anchor="middle" x="1672" y="-265.25" font-family="Helvetica,sans-Serif" font-size="10.00">depth 12</text>
<text xml:space="preserve" text-anchor="middle" x="1672" y="-252.5" font-family="Helvetica,sans-Serif" font-size="10.00">leaky relu: 5</text>
</a>
</g>
</g>
<!-- d13 -->
<g id="node14" class="node">
<title>d13</title>
<g id="a_node14"><a xlink:title="4 neurons at depth 13">
<path fill="palegreen" stroke="#737373" d="M1822,-372C1822,-372 1786.5,-372 1786.5,-372 1780.5,-372 1774.5,-366 1774.5,-360 1774.5,-360 1774.5,-348 1774.5,-348 1774.5,-342 1780.5,-336 1786.5,-336 1786.5,-336 1822,-336 1822,-336 1828,-336 1834,-342 1834,-348 1834,-348 1834,-360 1834,-360 1834,-366 1828,-372 1822,-372"/>
<text xml:space="preserve" text-anchor="middle" x="1804.25" y="-357.25" font-family="Helvetica,sans-Serif" font-size="10.00">depth 13</text>
<text xml:space="preserve" text-anchor="middle" x="1804.25" y="-344.5" font-family="Helvetica,sans-Serif" font-size="10.00">output: 4</text>
</a>
</g>
</g>
</g>
</svg>
